<svg xmlns="http://www.w3.org/2000/svg" viewBox="0 0 48 48">
  <path fill="#EA4335" d="M24 9.5c3.54 0 6.71 1.23 9.2 3.24l6.86-6.86C35.82 2.34 30.28 0 24 0 14.64 0 6.56 5.38 2.56 13.22l7.98 6.2C12.42 13.2 17.74 9.5 24 9.5z"/>
  <path fill="#4285F4" d="M46.1 24.5c0-1.64-.15-3.22-.42-4.76H24v9.02h12.4c-.54 2.9-2.18 5.36-4.66 7.02l7.18 5.58c4.2-3.88 6.18-9.6 6.18-15.86z"/>
  <path fill="#FBBC05" d="M10.54 28.58a14.53 14.53 0 010-9.16l-7.98-6.2a23.96 23.96 0 000 21.56l7.98-6.2z"/>
  <path fill="#34A853" d="M24 48c6.28 0 11.56-2.08 15.42-5.64l-7.18-5.58c-2 1.36-4.56 2.16-8.24 2.16-6.26 0-11.58-3.7-13.46-8.92l-7.98 6.2C6.56 42.62 14.64 48 24 48z"/>
</svg>
